<svg xmlns="http://www.w3.org/2000/svg"  viewBox="0 0 64 64" width="100px" height="100px"><path fill="#d3dce5" d="M10,7H54V59c0,.55-.45,1-1,1H11c-.55,0-1-.45-1-1V7h0Z"/><rect width="15" height="16" x="16.5" y="17" fill="#6581c6" transform="rotate(90 24 25)"/><path fill="#6581c6" d="M59.91,25.2l-9.72,20.85-3.99,1.45-1.45-3.99,9.72-20.85c.23-.5,.83-.72,1.33-.48l3.63,1.69c.5,.23,.72,.83,.48,1.33Z"/><path fill="#ecaf64" d="M53.34,22.75h6v5c0,.55-.45,1-1,1h-4c-.55,0-1-.45-1-1v-5h0Z" transform="rotate(-155 56.34 25.751)"/><path fill="#737f9b" d="M11,4H53c.55,0,1,.45,1,1v5H10V5c0-.55,.45-1,1-1Z"/><path fill="#1a2c3d" d="M16,33.5h16c.55,0,1-.45,1-1v-15c0-.55-.45-1-1-1H16c-.55,0-1,.45-1,1v15c0,.55,.45,1,1,1Zm1-15h14v13h-14v-13Z"/><path fill="#1a2c3d" d="M36,18.5h12c.55,0,1-.45,1-1s-.45-1-1-1h-12c-.55,0-1,.45-1,1s.45,1,1,1Z"/><path fill="#1a2c3d" d="M36,23.5h12c.55,0,1-.45,1-1s-.45-1-1-1h-12c-.55,0-1,.45-1,1s.45,1,1,1Z"/><path fill="#1a2c3d" d="M36,28.5h12c.55,0,1-.45,1-1s-.45-1-1-1h-12c-.55,0-1,.45-1,1s.45,1,1,1Z"/><path fill="#1a2c3d" d="M48,51.5H16c-.55,0-1,.45-1,1s.45,1,1,1H48c.55,0,1-.45,1-1s-.45-1-1-1Z"/><path fill="#1a2c3d" d="M59.85,22.97l-3.63-1.69c-.4-.18-.82-.22-1.22-.15V5c0-1.1-.9-2-2-2H11c-1.1,0-2,.9-2,2V59c0,1.1,.9,2,2,2H53c1.1,0,2-.9,2-2v-20.91l5.81-12.46h0c.47-1,.03-2.19-.97-2.66Zm-13.05,23.25l-.97-2.66,7.01-15.03,3.63,1.69-7.01,15.03-2.66,.97Zm12.2-21.44l-1.69,3.62-3.63-1.69,1.3-2.78s.01,0,.02,0v-.05l.37-.8,3.63,1.69ZM11,5H53v4H11V5ZM53,59H11V11H53v12.45l-1.55,3.33s0,0,0,0l-2.51,5.39c-.14-.39-.5-.67-.93-.67h-12c-.55,0-1,.45-1,1s.45,1,1,1h12c.12,0,.24-.03,.35-.07l-1.43,3.07H16c-.55,0-1,.45-1,1s.45,1,1,1h29.98l-1.4,3H16c-.55,0-1,.45-1,1s.45,1,1,1h27.75c0,.12,.01,.24,.05,.36l.96,2.64H16c-.55,0-1,.45-1,1s.45,1,1,1h30.2c.11,0,.23-.02,.34-.06l3.99-1.45c.25-.09,.45-.28,.56-.52l1.91-4.09v16.62Z"/></svg>