<svg xmlns="http://www.w3.org/2000/svg"  viewBox="0 0 256 256" width="100px" height="100px"><path fill="#f1f2f2" d="M241.602,218.826V67.465H14.397v151.361c0,5.523,4.477,10,10,10h207.206 C237.125,228.826,241.602,224.349,241.602,218.826z"/><path fill="#e6e7e8" d="M231.602,67.465v141.361c0,5.523-4.477,10-10,10H14.397c0,5.523,4.477,10,10,10h207.206 c5.523,0,10-4.477,10-10V67.465H231.602z"/><path fill="#d1d3d4" d="M236.602,67.465v146.361c0,5.523-4.477,10-10,10H19.397c-1.466,0-2.855-0.323-4.11-0.891 c1.569,3.471,5.053,5.891,9.11,5.891h207.206c5.523,0,10-4.477,10-10V67.465H236.602z"/><path fill="#58595b" d="M241.603,37.174v30.292H14.398V37.174c0-5.523,4.477-10,10-10h207.206 C237.126,27.174,241.603,31.651,241.603,37.174z"/><path fill="#414042" d="M235.713,28.064c0.567,1.255,0.89,2.643,0.89,4.109v26.292c0,2.209-1.791,4-4,4H14.398v5h227.206V37.174 C241.603,33.117,239.184,29.633,235.713,28.064z"/><circle cx="88.125" cy="47.32" r="6.912" fill="#91b56b"/><circle cx="63.017" cy="47.32" r="6.912" fill="#f79219"/><circle cx="37.91" cy="47.32" r="6.912" fill="#e63950"/><g><path fill="#fff" d="M20.397,152c-1.104,0-2-0.896-2-2V82c0-1.104,0.896-2,2-2s2,0.896,2,2v68 C22.397,151.104,21.501,152,20.397,152z M20.397,76c-1.104,0-2-0.896-2-2v-0.535c0-1.104,0.896-2,2-2s2,0.896,2,2V74 C22.397,75.104,21.501,76,20.397,76z"/></g><g><path fill="#893add" d="M149.65,181.736c9.236,0,16.723-7.487,16.723-16.723v-60.234c0-9.236-7.487-16.723-16.723-16.723H55.639 c-9.236,0-16.723,7.487-16.723,16.723v60.234c0,9.236,7.487,16.723,16.723,16.723h62.012l25.847,22.922 c1.229,1.09,3.168,0.217,3.168-1.425v-21.497H149.65z"/><path fill="#6c2bc1" d="M157.044,89.796c2.082,2.788,3.329,6.236,3.329,9.983v60.235c0,9.236-7.487,16.723-16.723,16.723h-2.983 v21.498c0,1.303-1.219,2.103-2.336,1.841l5.169,4.584c1.229,1.09,3.168,0.217,3.168-1.425v-21.498h2.983 c9.236,0,16.723-7.487,16.723-16.723v-60.235C166.373,98.201,162.566,92.527,157.044,89.796z"/><path fill="#fff" d="M146.373,116.056H58.917c-1.104,0-2-0.896-2-2s0.896-2,2-2h87.457c1.104,0,2,0.896,2,2 S147.478,116.056,146.373,116.056z"/><path fill="#fff" d="M146.373,136.056H58.917c-1.104,0-2-0.896-2-2s0.896-2,2-2h87.457c1.104,0,2,0.896,2,2 S147.478,136.056,146.373,136.056z"/><path fill="#fff" d="M146.373,156.056H58.917c-1.104,0-2-0.896-2-2s0.896-2,2-2h87.457c1.104,0,2,0.896,2,2 S147.478,156.056,146.373,156.056z"/><path fill="#ffd2c0" d="M184.3,107.037l14.621-27.492c0.752-1.414,2.779-1.415,3.531,0l14.63,27.493l0,100.719 c0,3.842-3.115,6.957-6.957,6.957l-18.87,0c-3.842,0-6.957-3.115-6.957-6.957L184.3,107.037z"/><path fill="#fcc4ae" d="M217.083,107.037l-14.63-27.493c-0.753-1.414-2.779-1.414-3.531,0l-0.734,1.38l13.896,26.112H217.083z"/><path fill="#58595b" d="M208.009,89.984l-5.556-10.44c-0.753-1.414-2.779-1.414-3.531,0l-5.552,10.439H208.009z"/><path fill="#414042" d="M202.453,79.545c-0.753-1.414-2.779-1.414-3.531,0l-0.734,1.38l4.821,9.059h5L202.453,79.545z"/><path fill="#ffa91a" d="M184.3,107.037l32.783,0l0,100.719c0,3.842-3.115,6.957-6.957,6.957l-18.87,0 c-3.842,0-6.957-3.115-6.957-6.957L184.3,107.037z"/><path fill="#f79219" d="M217.083,107.037h-5l0,100.718c0,3.842-3.115,6.957-6.957,6.957h5c3.842,0,6.957-3.115,6.957-6.957 L217.083,107.037z"/><path fill="#e8566f" d="M184.3,194.551v13.206c0,3.842,3.115,6.957,6.957,6.957l18.87,0c3.842,0,6.957-3.115,6.957-6.957v-13.206 L184.3,194.551z"/><path fill="#e63950" d="M212.083,194.55v13.206c0,3.842-3.115,6.957-6.957,6.957h5c3.842,0,6.957-3.115,6.957-6.957V194.55 H212.083z"/></g></svg>