<svg xmlns="http://www.w3.org/2000/svg"  viewBox="0 0 64 64" width="100px" height="100px"><path fill="#faefde" d="M44.75 40.7H60.25V44.7H44.75z" transform="rotate(27.54 52.487 42.699)"/><path fill="#faefde" d="M11.66 13.03H28.59V17.03H11.66z" transform="rotate(69.08 20.13 15.029)"/><path fill="#f9e3ae" d="M15,7l7,17-2,4,9,12,11,5,4-4,15,7-2,6L46,57,26,49S11.14,37.93,7,25c-2.24-7,3-15,3-15Z"/><path fill="#f6d397" d="M42,51.23c-9.95-4.15-19.87-12.91-27.95-24.69L13.68,26l-.09-.12A37.45,37.45,0,0,1,7.81,14.45c-.24-.88-1.35.47-1.35,2.52C6.46,22.7,9,29.4,11.07,32.28l.08.1.32.46C18.38,42.93,26.88,50.43,35.39,54c11.54,4.81,15.54,3.17,17.74,2.7.92-.2,1.45-1.21.61-1.4A77.22,77.22,0,0,1,42,51.23Z"/><path fill="#8d6c9f" d="M60.57,43.51a4.55,4.55,0,0,0-2.2-1.58l-.74-.36c-.08,0-7.67-3.84-9.07-4.33a3.49,3.49,0,0,0-4.4,1.34l-.55.78a43.14,43.14,0,0,1-2.89,3.81,1.87,1.87,0,0,1-2.06.27l-.42-.17A31.77,31.77,0,0,1,28.37,37a39.51,39.51,0,0,1-7.11-8.9c-.39-.67-.23-.91.44-1.7.36-.45.71-.82,1.07-1.2s.58-.62.87-1l.13-.16A8.28,8.28,0,0,0,25.23,22a3.75,3.75,0,0,0-.17-3.34c-.22-.46-1.76-4.23-2.89-7L21,8.91h0C20,6.34,18.9,6.12,17.3,6.05c-.47,0-1-.05-1.57-.05A7.4,7.4,0,0,0,10.4,7.93L10.29,8A15.47,15.47,0,0,0,5.51,19.66C5.51,25.44,8.94,31,11,33.84l.08.11.25.36c6.49,9.47,14.52,16.54,22.6,19.9,7.18,3,11,3.79,13.57,3.79a12.91,12.91,0,0,0,2.82-.32c3.73-.81,8.35-3.55,9.58-7C60.88,47.79,61.19,44.59,60.57,43.51Zm-12.7-4.4c1.07.37,7,3.28,8.86,4.24l.77.38a6.38,6.38,0,0,1,1.3.72,7.73,7.73,0,0,1-.11,2.78L45.25,40.5l.55-.77A1.53,1.53,0,0,1,47.88,39.11ZM19.18,9.67l1.14,2.78c1.52,3.72,2.71,6.61,2.94,7.08a1.73,1.73,0,0,1,.18,1.6,6.42,6.42,0,0,1-1.18,1.7l0,.06L16.08,8l1.11,0C18.3,8.1,18.53,8.11,19.18,9.67Zm30.7,46c-2,.43-4.72,1-15.19-3.36C27,49.14,19.24,42.32,13,33.17l-.29-.42-.07-.09c-1.9-2.62-5.09-7.79-5.09-13A13.43,13.43,0,0,1,11.72,9.44l.12-.12A4.49,4.49,0,0,1,14,8.19a1,1,0,0,0,0,.19l6.65,16.14c-.19.21-.39.44-.59.69a3.08,3.08,0,0,0-.6,3.94A40.85,40.85,0,0,0,27,38.54a34.11,34.11,0,0,0,10.45,6.57l.4.16a3.79,3.79,0,0,0,4.3-.75,27.73,27.73,0,0,0,1.88-2.37l14.16,7.08c-.07.24-.14.48-.23.74C57.05,52.64,53,55,49.88,55.72Z"/><path fill="#8d6c9f" d="M18.64 31.14a1 1 0 0 0-1.72 1c.33.56.92 1.42 1.57 2.3a1 1 0 0 0 1.61-1.19A25.59 25.59 0 0 1 18.64 31.14zM33.89 45.44a37.9 37.9 0 0 1-7.79-5.51 41.8 41.8 0 0 1-3.34-3.38 1 1 0 1 0-1.5 1.33 43.77 43.77 0 0 0 3.51 3.55A39.88 39.88 0 0 0 33 47.21a1 1 0 0 0 .92-1.78zM28.23 11.17a1 1 0 0 0 1.3.55l5.56-2.25a1 1 0 0 0-.75-1.85L28.78 9.87A1 1 0 0 0 28.23 11.17zM25.29 6.9A1 1 0 0 0 26 6.62l2.88-2.78A1 1 0 0 0 27.47 2.4L24.6 5.18a1 1 0 0 0 .69 1.72zM29.78 16a1 1 0 0 0 0 2h4a1 1 0 0 0 0-2z"/></svg>